<?xml version="1.0" encoding="UTF-8"?>
<!DOCTYPE svg PUBLIC "-//W3C//DTD SVG 1.1//EN" "http://www.w3.org/Graphics/SVG/1.1/DTD/svg11.dtd">
<svg xmlns="http://www.w3.org/2000/svg" version="1.1" width="400px" height="400px" style="shape-rendering:geometricPrecision; text-rendering:geometricPrecision; image-rendering:optimizeQuality; fill-rule:evenodd; clip-rule:evenodd" xmlns:xlink="http://www.w3.org/1999/xlink">
<g><path style="opacity:1" fill="#171425" d="M 39.5,-0.5 C 146.167,-0.5 252.833,-0.5 359.5,-0.5C 359.5,6.16667 359.5,12.8333 359.5,19.5C 346.167,19.5 332.833,19.5 319.5,19.5C 239.5,19.5 159.5,19.5 79.5,19.5C 66.1667,19.5 52.8333,19.5 39.5,19.5C 39.5,12.8333 39.5,6.16667 39.5,-0.5 Z"/></g>
<g><path style="opacity:1" fill="#171425" d="M 39.5,19.5 C 39.5,26.1667 39.5,32.8333 39.5,39.5C 32.8333,39.5 26.1667,39.5 19.5,39.5C 19.5,32.8333 19.5,26.1667 19.5,19.5C 26.1667,19.5 32.8333,19.5 39.5,19.5 Z"/></g>
<g><path style="opacity:1" fill="#bfcbdb" d="M 39.5,19.5 C 52.8333,19.5 66.1667,19.5 79.5,19.5C 79.5,26.1667 79.5,32.8333 79.5,39.5C 72.8333,39.5 66.1667,39.5 59.5,39.5C 52.8333,39.5 46.1667,39.5 39.5,39.5C 39.5,32.8333 39.5,26.1667 39.5,19.5 Z"/></g>
<g><path style="opacity:1" fill="#e0e6ed" d="M 79.5,19.5 C 159.5,19.5 239.5,19.5 319.5,19.5C 319.5,26.1667 319.5,32.8333 319.5,39.5C 332.833,39.5 346.167,39.5 359.5,39.5C 359.5,46.1667 359.5,52.8333 359.5,59.5C 366.167,59.5 372.833,59.5 379.5,59.5C 379.5,105.833 379.5,152.167 379.5,198.5C 352.995,198.169 326.661,198.502 300.5,199.5C 299.509,205.979 299.176,212.646 299.5,219.5C 292.833,219.5 286.167,219.5 279.5,219.5C 279.5,212.833 279.5,206.167 279.5,199.5C 279.5,179.5 279.5,159.5 279.5,139.5C 279.5,132.833 279.5,126.167 279.5,119.5C 273.167,119.5 266.833,119.5 260.5,119.5C 240.5,119.5 220.5,119.5 200.5,119.5C 200.5,112.833 200.5,106.167 200.5,99.5C 186.656,99.829 172.99,99.4957 159.5,98.5C 193.167,98.5 226.833,98.5 260.5,98.5C 260.5,92.1667 260.5,85.8333 260.5,79.5C 233.5,79.5 206.5,79.5 179.5,79.5C 179.5,72.8333 179.5,66.1667 179.5,59.5C 172.833,59.5 166.167,59.5 159.5,59.5C 159.5,52.8333 159.5,46.1667 159.5,39.5C 139.5,39.5 119.5,39.5 99.5,39.5C 99.5,46.1667 99.5,52.8333 99.5,59.5C 92.8333,59.5 86.1667,59.5 79.5,59.5C 72.8333,59.5 66.1667,59.5 59.5,59.5C 59.5,52.8333 59.5,46.1667 59.5,39.5C 66.1667,39.5 72.8333,39.5 79.5,39.5C 79.5,32.8333 79.5,26.1667 79.5,19.5 Z"/></g>
<g><path style="opacity:1" fill="#c0cbdc" d="M 319.5,19.5 C 332.833,19.5 346.167,19.5 359.5,19.5C 359.5,26.1667 359.5,32.8333 359.5,39.5C 346.167,39.5 332.833,39.5 319.5,39.5C 319.5,32.8333 319.5,26.1667 319.5,19.5 Z"/></g>
<g><path style="opacity:1" fill="#171324" d="M 359.5,19.5 C 366.5,19.5 373.5,19.5 380.5,19.5C 380.5,26.1667 380.5,32.8333 380.5,39.5C 373.5,39.5 366.5,39.5 359.5,39.5C 359.5,32.8333 359.5,26.1667 359.5,19.5 Z"/></g>
<g><path style="opacity:1" fill="#171425" d="M -0.5,39.5 C 6.16667,39.5 12.8333,39.5 19.5,39.5C 19.5,52.8333 19.5,66.1667 19.5,79.5C 19.5,126.167 19.5,172.833 19.5,219.5C 19.5,266.167 19.5,312.833 19.5,359.5C 12.8333,359.5 6.16667,359.5 -0.5,359.5C -0.5,252.833 -0.5,146.167 -0.5,39.5 Z"/></g>
<g><path style="opacity:1" fill="#19578c" d="M 19.5,39.5 C 26.1667,39.5 32.8333,39.5 39.5,39.5C 46.1667,39.5 52.8333,39.5 59.5,39.5C 59.5,46.1667 59.5,52.8333 59.5,59.5C 52.8333,59.5 46.1667,59.5 39.5,59.5C 39.5,66.1667 39.5,72.8333 39.5,79.5C 32.8333,79.5 26.1667,79.5 19.5,79.5C 19.5,66.1667 19.5,52.8333 19.5,39.5 Z"/></g>
<g><path style="opacity:1" fill="#fefefe" d="M 179.5,79.5 C 172.833,79.5 166.167,79.5 159.5,79.5C 159.5,85.8333 159.5,92.1667 159.5,98.5C 172.99,99.4957 186.656,99.829 200.5,99.5C 200.5,106.167 200.5,112.833 200.5,119.5C 186.5,119.5 172.5,119.5 158.5,119.5C 152.167,119.5 145.833,119.5 139.5,119.5C 132.833,119.5 126.167,119.5 119.5,119.5C 119.5,112.5 119.5,105.5 119.5,98.5C 112.833,98.5 106.167,98.5 99.5,98.5C 99.5,92.1667 99.5,85.8333 99.5,79.5C 92.8333,79.5 86.1667,79.5 79.5,79.5C 79.5,72.8333 79.5,66.1667 79.5,59.5C 86.1667,59.5 92.8333,59.5 99.5,59.5C 99.5,52.8333 99.5,46.1667 99.5,39.5C 119.5,39.5 139.5,39.5 159.5,39.5C 159.5,46.1667 159.5,52.8333 159.5,59.5C 166.167,59.5 172.833,59.5 179.5,59.5C 179.5,66.1667 179.5,72.8333 179.5,79.5 Z"/></g>
<g><path style="opacity:1" fill="#b7b4c1" d="M 359.5,39.5 C 366.5,39.5 373.5,39.5 380.5,39.5C 380.5,92.8333 380.5,146.167 380.5,199.5C 380.167,199.5 379.833,199.5 379.5,199.5C 353.167,199.5 326.833,199.5 300.5,199.5C 326.661,198.502 352.995,198.169 379.5,198.5C 379.5,152.167 379.5,105.833 379.5,59.5C 372.833,59.5 366.167,59.5 359.5,59.5C 359.5,52.8333 359.5,46.1667 359.5,39.5 Z"/></g>
<g><path style="opacity:1" fill="#171425" d="M 380.5,39.5 C 386.833,39.5 393.167,39.5 399.5,39.5C 399.5,146.167 399.5,252.833 399.5,359.5C 393.167,359.5 386.833,359.5 380.5,359.5C 380.5,306.167 380.5,252.833 380.5,199.5C 380.5,146.167 380.5,92.8333 380.5,39.5 Z"/></g>
<g><path style="opacity:1" fill="#1e7bb4" d="M 59.5,59.5 C 59.5,66.1667 59.5,72.8333 59.5,79.5C 66.1667,79.5 72.8333,79.5 79.5,79.5C 79.5,85.8333 79.5,92.1667 79.5,98.5C 86.1667,98.5 92.8333,98.5 99.5,98.5C 106.167,98.5 112.833,98.5 119.5,98.5C 119.5,105.5 119.5,112.5 119.5,119.5C 119.5,152.833 119.5,186.167 119.5,219.5C 119.5,232.833 119.5,246.167 119.5,259.5C 126.167,259.5 132.833,259.5 139.5,259.5C 139.5,266.167 139.5,272.833 139.5,279.5C 132.833,279.5 126.167,279.5 119.5,279.5C 119.5,286.167 119.5,292.833 119.5,299.5C 112.833,299.5 106.167,299.5 99.5,299.5C 99.5,292.833 99.5,286.167 99.5,279.5C 92.8333,279.5 86.1667,279.5 79.5,279.5C 79.5,272.833 79.5,266.167 79.5,259.5C 72.8333,259.5 66.1667,259.5 59.5,259.5C 59.5,253.167 59.5,246.833 59.5,240.5C 52.8333,240.5 46.1667,240.5 39.5,240.5C 39.5,233.5 39.5,226.5 39.5,219.5C 32.8333,219.5 26.1667,219.5 19.5,219.5C 19.5,172.833 19.5,126.167 19.5,79.5C 26.1667,79.5 32.8333,79.5 39.5,79.5C 39.5,72.8333 39.5,66.1667 39.5,59.5C 46.1667,59.5 52.8333,59.5 59.5,59.5 Z"/></g>
<g><path style="opacity:1" fill="#19578c" d="M 59.5,59.5 C 66.1667,59.5 72.8333,59.5 79.5,59.5C 79.5,66.1667 79.5,72.8333 79.5,79.5C 72.8333,79.5 66.1667,79.5 59.5,79.5C 59.5,72.8333 59.5,66.1667 59.5,59.5 Z"/></g>
<g><path style="opacity:1" fill="#19578c" d="M 79.5,79.5 C 86.1667,79.5 92.8333,79.5 99.5,79.5C 99.5,85.8333 99.5,92.1667 99.5,98.5C 92.8333,98.5 86.1667,98.5 79.5,98.5C 79.5,92.1667 79.5,85.8333 79.5,79.5 Z"/></g>
<g><path style="opacity:1" fill="#c0cbdc" d="M 179.5,79.5 C 206.5,79.5 233.5,79.5 260.5,79.5C 260.5,85.8333 260.5,92.1667 260.5,98.5C 226.833,98.5 193.167,98.5 159.5,98.5C 159.5,92.1667 159.5,85.8333 159.5,79.5C 166.167,79.5 172.833,79.5 179.5,79.5 Z"/></g>
<g><path style="opacity:1" fill="#e0e7ed" d="M 119.5,119.5 C 126.167,119.5 132.833,119.5 139.5,119.5C 139.5,126.167 139.5,132.833 139.5,139.5C 139.5,166.167 139.5,192.833 139.5,219.5C 132.833,219.5 126.167,219.5 119.5,219.5C 119.5,186.167 119.5,152.833 119.5,119.5 Z"/></g>
<g><path style="opacity:1" fill="#b42d1a" d="M 139.5,119.5 C 145.833,119.5 152.167,119.5 158.5,119.5C 158.5,126.167 158.5,132.833 158.5,139.5C 152.167,139.5 145.833,139.5 139.5,139.5C 139.5,132.833 139.5,126.167 139.5,119.5 Z"/></g>
<g><path style="opacity:1" fill="#de3d22" d="M 158.5,119.5 C 172.5,119.5 186.5,119.5 200.5,119.5C 220.5,119.5 240.5,119.5 260.5,119.5C 260.5,126.167 260.5,132.833 260.5,139.5C 266.833,139.5 273.167,139.5 279.5,139.5C 279.5,159.5 279.5,179.5 279.5,199.5C 273.167,199.5 266.833,199.5 260.5,199.5C 247.01,198.504 233.344,198.171 219.5,198.5C 219.5,192.167 219.5,185.833 219.5,179.5C 233.167,179.5 246.833,179.5 260.5,179.5C 260.812,172.578 260.479,165.744 259.5,159C 246.171,158.5 232.837,158.333 219.5,158.5C 219.5,152.167 219.5,145.833 219.5,139.5C 212.833,139.5 206.167,139.5 199.5,139.5C 185.833,139.5 172.167,139.5 158.5,139.5C 158.5,132.833 158.5,126.167 158.5,119.5 Z"/></g>
<g><path style="opacity:1" fill="#b42d1a" d="M 260.5,119.5 C 266.833,119.5 273.167,119.5 279.5,119.5C 279.5,126.167 279.5,132.833 279.5,139.5C 273.167,139.5 266.833,139.5 260.5,139.5C 260.5,132.833 260.5,126.167 260.5,119.5 Z"/></g>
<g><path style="opacity:1" fill="#de3f24" d="M 139.5,139.5 C 145.833,139.5 152.167,139.5 158.5,139.5C 158.5,145.833 158.5,152.167 158.5,158.5C 172.167,158.5 185.833,158.5 199.5,158.5C 199.5,158.833 199.5,159.167 199.5,159.5C 185.833,159.5 172.167,159.5 158.5,159.5C 158.5,166.167 158.5,172.833 158.5,179.5C 172.167,179.5 185.833,179.5 199.5,179.5C 199.5,185.833 199.5,192.167 199.5,198.5C 185.833,198.5 172.167,198.5 158.5,198.5C 158.5,205.5 158.5,212.5 158.5,219.5C 152.167,219.5 145.833,219.5 139.5,219.5C 139.5,192.833 139.5,166.167 139.5,139.5 Z"/></g>
<g><path style="opacity:1" fill="#f9690a" d="M 158.5,139.5 C 172.167,139.5 185.833,139.5 199.5,139.5C 199.5,145.833 199.5,152.167 199.5,158.5C 185.833,158.5 172.167,158.5 158.5,158.5C 158.5,152.167 158.5,145.833 158.5,139.5 Z"/></g>
<g><path style="opacity:1" fill="#e0e4ea" d="M 199.5,139.5 C 206.167,139.5 212.833,139.5 219.5,139.5C 219.5,145.833 219.5,152.167 219.5,158.5C 219.5,165.5 219.5,172.5 219.5,179.5C 219.5,185.833 219.5,192.167 219.5,198.5C 219.5,198.833 219.5,199.167 219.5,199.5C 219.5,206.167 219.5,212.833 219.5,219.5C 212.833,219.5 206.167,219.5 199.5,219.5C 199.5,212.833 199.5,206.167 199.5,199.5C 199.5,199.167 199.5,198.833 199.5,198.5C 199.5,192.167 199.5,185.833 199.5,179.5C 199.5,172.833 199.5,166.167 199.5,159.5C 199.5,159.167 199.5,158.833 199.5,158.5C 199.5,152.167 199.5,145.833 199.5,139.5 Z"/></g>
<g><path style="opacity:1" fill="#8c99b2" d="M 199.5,159.5 C 199.5,166.167 199.5,172.833 199.5,179.5C 185.833,179.5 172.167,179.5 158.5,179.5C 158.5,172.833 158.5,166.167 158.5,159.5C 172.167,159.5 185.833,159.5 199.5,159.5 Z"/></g>
<g><path style="opacity:1" fill="#8f97ae" d="M 219.5,158.5 C 232.837,158.333 246.171,158.5 259.5,159C 260.479,165.744 260.812,172.578 260.5,179.5C 246.833,179.5 233.167,179.5 219.5,179.5C 219.5,172.5 219.5,165.5 219.5,158.5 Z"/></g>
<g><path style="opacity:1" fill="#b06f70" d="M 219.5,199.5 C 219.5,199.167 219.5,198.833 219.5,198.5C 233.344,198.171 247.01,198.504 260.5,199.5C 260.5,206.167 260.5,212.833 260.5,219.5C 260.824,226.354 260.491,233.021 259.5,239.5C 259.5,232.833 259.5,226.167 259.5,219.5C 259.5,212.833 259.5,206.167 259.5,199.5C 252.833,199.5 246.167,199.5 239.5,199.5C 232.833,199.5 226.167,199.5 219.5,199.5 Z"/></g>
<g><path style="opacity:1" fill="#b97676" d="M 199.5,198.5 C 199.5,198.833 199.5,199.167 199.5,199.5C 192.833,199.5 186.167,199.5 179.5,199.5C 172.833,199.5 166.167,199.5 159.5,199.5C 159.5,206.167 159.5,212.833 159.5,219.5C 159.5,226.167 159.5,232.833 159.5,239.5C 158.509,233.021 158.176,226.354 158.5,219.5C 158.5,212.5 158.5,205.5 158.5,198.5C 172.167,198.5 185.833,198.5 199.5,198.5 Z"/></g>
<g><path style="opacity:1" fill="#bfcbdb" d="M 179.5,199.5 C 179.5,206.167 179.5,212.833 179.5,219.5C 172.833,219.5 166.167,219.5 159.5,219.5C 159.5,212.833 159.5,206.167 159.5,199.5C 166.167,199.5 172.833,199.5 179.5,199.5 Z"/></g>
<g><path style="opacity:1" fill="#8a9bb3" d="M 179.5,199.5 C 186.167,199.5 192.833,199.5 199.5,199.5C 199.5,206.167 199.5,212.833 199.5,219.5C 192.833,219.5 186.167,219.5 179.5,219.5C 179.5,212.833 179.5,206.167 179.5,199.5 Z"/></g>
<g><path style="opacity:1" fill="#8a9bb3" d="M 219.5,199.5 C 226.167,199.5 232.833,199.5 239.5,199.5C 239.5,206.167 239.5,212.833 239.5,219.5C 232.833,219.5 226.167,219.5 219.5,219.5C 219.5,212.833 219.5,206.167 219.5,199.5 Z"/></g>
<g><path style="opacity:1" fill="#bec9db" d="M 239.5,199.5 C 246.167,199.5 252.833,199.5 259.5,199.5C 259.5,206.167 259.5,212.833 259.5,219.5C 253.167,219.5 246.833,219.5 240.5,219.5C 240.167,219.5 239.833,219.5 239.5,219.5C 239.5,212.833 239.5,206.167 239.5,199.5 Z"/></g>
<g><path style="opacity:1" fill="#b42d1a" d="M 260.5,199.5 C 266.833,199.5 273.167,199.5 279.5,199.5C 279.5,206.167 279.5,212.833 279.5,219.5C 273.167,219.5 266.833,219.5 260.5,219.5C 260.5,212.833 260.5,206.167 260.5,199.5 Z"/></g>
<g><path style="opacity:1" fill="#de3d22" d="M 300.5,199.5 C 326.833,199.5 353.167,199.5 379.5,199.5C 379.5,219.5 379.5,239.5 379.5,259.5C 372.833,259.5 366.167,259.5 359.5,259.5C 359.5,273.167 359.5,286.833 359.5,300.5C 352.833,300.5 346.167,300.5 339.5,300.5C 339.5,306.833 339.5,313.167 339.5,319.5C 326.5,319.5 313.5,319.5 300.5,319.5C 300.5,326.167 300.5,332.833 300.5,339.5C 233.5,339.5 166.5,339.5 99.5,339.5C 99.5,332.833 99.5,326.167 99.5,319.5C 99.5,313.167 99.5,306.833 99.5,300.5C 106.354,300.824 113.021,300.491 119.5,299.5C 119.5,292.833 119.5,286.167 119.5,279.5C 126.167,279.5 132.833,279.5 139.5,279.5C 145.833,279.5 152.167,279.5 158.5,279.5C 158.334,286.175 158.5,292.842 159,299.5C 165.744,300.479 172.578,300.812 179.5,300.5C 179.5,306.833 179.5,313.167 179.5,319.5C 199.833,319.5 220.167,319.5 240.5,319.5C 240.5,313.167 240.5,306.833 240.5,300.5C 247.09,300.811 253.59,300.478 260,299.5C 260.5,292.842 260.666,286.175 260.5,279.5C 266.833,279.5 273.167,279.5 279.5,279.5C 279.5,272.833 279.5,266.167 279.5,259.5C 286.5,259.5 293.5,259.5 300.5,259.5C 300.5,239.5 300.5,219.5 300.5,199.5 Z"/></g>
<g><path style="opacity:1" fill="#19578b" d="M 19.5,219.5 C 26.1667,219.5 32.8333,219.5 39.5,219.5C 39.5,226.5 39.5,233.5 39.5,240.5C 46.1667,240.5 52.8333,240.5 59.5,240.5C 59.5,246.833 59.5,253.167 59.5,259.5C 66.1667,259.5 72.8333,259.5 79.5,259.5C 79.5,266.167 79.5,272.833 79.5,279.5C 86.1667,279.5 92.8333,279.5 99.5,279.5C 99.5,286.167 99.5,292.833 99.5,299.5C 106.167,299.5 112.833,299.5 119.5,299.5C 113.021,300.491 106.354,300.824 99.5,300.5C 99.5,306.833 99.5,313.167 99.5,319.5C 92.8333,319.5 86.1667,319.5 79.5,319.5C 72.8333,319.5 66.1667,319.5 59.5,319.5C 59.5,326.167 59.5,332.833 59.5,339.5C 52.8333,339.5 46.1667,339.5 39.5,339.5C 39.5,346.167 39.5,352.833 39.5,359.5C 32.8333,359.5 26.1667,359.5 19.5,359.5C 19.5,312.833 19.5,266.167 19.5,219.5 Z"/></g>
<g><path style="opacity:1" fill="#bfcbdb" d="M 119.5,219.5 C 126.167,219.5 132.833,219.5 139.5,219.5C 139.5,232.833 139.5,246.167 139.5,259.5C 132.833,259.5 126.167,259.5 119.5,259.5C 119.5,246.167 119.5,232.833 119.5,219.5 Z"/></g>
<g><path style="opacity:1" fill="#237ab4" d="M 139.5,219.5 C 145.833,219.5 152.167,219.5 158.5,219.5C 158.176,226.354 158.509,233.021 159.5,239.5C 172.833,239.5 186.167,239.5 199.5,239.5C 206.167,239.5 212.833,239.5 219.5,239.5C 232.99,240.496 246.656,240.829 260.5,240.5C 260.5,246.833 260.5,253.167 260.5,259.5C 260.5,266.167 260.5,272.833 260.5,279.5C 260.167,279.5 259.833,279.5 259.5,279.5C 259.5,272.833 259.5,266.167 259.5,259.5C 246.167,259.5 232.833,259.5 219.5,259.5C 219.5,266.167 219.5,272.833 219.5,279.5C 206.167,279.5 192.833,279.5 179.5,279.5C 179.5,272.833 179.5,266.167 179.5,259.5C 172.833,259.5 166.167,259.5 159.5,259.5C 159.5,266.167 159.5,272.833 159.5,279.5C 159.167,279.5 158.833,279.5 158.5,279.5C 158.5,272.833 158.5,266.167 158.5,259.5C 152.167,259.5 145.833,259.5 139.5,259.5C 139.5,246.167 139.5,232.833 139.5,219.5 Z"/></g>
<g><path style="opacity:1" fill="#de3e22" d="M 159.5,219.5 C 166.167,219.5 172.833,219.5 179.5,219.5C 186.167,219.5 192.833,219.5 199.5,219.5C 199.5,226.167 199.5,232.833 199.5,239.5C 186.167,239.5 172.833,239.5 159.5,239.5C 159.5,232.833 159.5,226.167 159.5,219.5 Z"/></g>
<g><path style="opacity:1" fill="#c1c7d7" d="M 199.5,219.5 C 206.167,219.5 212.833,219.5 219.5,219.5C 219.5,226.167 219.5,232.833 219.5,239.5C 212.833,239.5 206.167,239.5 199.5,239.5C 199.5,232.833 199.5,226.167 199.5,219.5 Z"/></g>
<g><path style="opacity:1" fill="#de3d22" d="M 219.5,219.5 C 226.167,219.5 232.833,219.5 239.5,219.5C 239.833,219.5 240.167,219.5 240.5,219.5C 240.5,226.167 240.5,232.833 240.5,239.5C 233.5,239.5 226.5,239.5 219.5,239.5C 219.5,232.833 219.5,226.167 219.5,219.5 Z"/></g>
<g><path style="opacity:1" fill="#b42d1a" d="M 240.5,219.5 C 246.833,219.5 253.167,219.5 259.5,219.5C 259.5,226.167 259.5,232.833 259.5,239.5C 253.167,239.5 246.833,239.5 240.5,239.5C 240.5,232.833 240.5,226.167 240.5,219.5 Z"/></g>
<g><path style="opacity:1" fill="#23578a" d="M 260.5,219.5 C 266.833,219.5 273.167,219.5 279.5,219.5C 279.5,232.833 279.5,246.167 279.5,259.5C 273.167,259.5 266.833,259.5 260.5,259.5C 260.5,253.167 260.5,246.833 260.5,240.5C 246.656,240.829 232.99,240.496 219.5,239.5C 226.5,239.5 233.5,239.5 240.5,239.5C 246.833,239.5 253.167,239.5 259.5,239.5C 260.491,233.021 260.824,226.354 260.5,219.5 Z"/></g>
<g><path style="opacity:1" fill="#c2c6d5" d="M 300.5,199.5 C 300.5,219.5 300.5,239.5 300.5,259.5C 293.5,259.5 286.5,259.5 279.5,259.5C 279.5,246.167 279.5,232.833 279.5,219.5C 286.167,219.5 292.833,219.5 299.5,219.5C 299.176,212.646 299.509,205.979 300.5,199.5 Z"/></g>
<g><path style="opacity:1" fill="#bfcbdb" d="M 139.5,259.5 C 145.833,259.5 152.167,259.5 158.5,259.5C 158.5,266.167 158.5,272.833 158.5,279.5C 152.167,279.5 145.833,279.5 139.5,279.5C 139.5,272.833 139.5,266.167 139.5,259.5 Z"/></g>
<g><path style="opacity:1" fill="#19578c" d="M 179.5,279.5 C 172.833,279.5 166.167,279.5 159.5,279.5C 159.5,272.833 159.5,266.167 159.5,259.5C 166.167,259.5 172.833,259.5 179.5,259.5C 179.5,266.167 179.5,272.833 179.5,279.5 Z"/></g>
<g><path style="opacity:1" fill="#19578c" d="M 259.5,279.5 C 253.167,279.5 246.833,279.5 240.5,279.5C 239.509,285.979 239.176,292.646 239.5,299.5C 219.5,299.5 199.5,299.5 179.5,299.5C 179.5,292.833 179.5,286.167 179.5,279.5C 192.833,279.5 206.167,279.5 219.5,279.5C 219.5,272.833 219.5,266.167 219.5,259.5C 232.833,259.5 246.167,259.5 259.5,259.5C 259.5,266.167 259.5,272.833 259.5,279.5 Z"/></g>
<g><path style="opacity:1" fill="#8a9bb3" d="M 260.5,259.5 C 266.833,259.5 273.167,259.5 279.5,259.5C 279.5,266.167 279.5,272.833 279.5,279.5C 273.167,279.5 266.833,279.5 260.5,279.5C 260.5,272.833 260.5,266.167 260.5,259.5 Z"/></g>
<g><path style="opacity:1" fill="#b42d1a" d="M 379.5,259.5 C 379.5,286.167 379.5,312.833 379.5,339.5C 372.833,339.5 366.167,339.5 359.5,339.5C 359.5,346.167 359.5,352.833 359.5,359.5C 352.833,359.5 346.167,359.5 339.5,359.5C 339.5,366.167 339.5,372.833 339.5,379.5C 246.167,379.5 152.833,379.5 59.5,379.5C 59.5,372.833 59.5,366.167 59.5,359.5C 59.5,352.833 59.5,346.167 59.5,339.5C 66.1667,339.5 72.8333,339.5 79.5,339.5C 79.5,332.833 79.5,326.167 79.5,319.5C 86.1667,319.5 92.8333,319.5 99.5,319.5C 99.5,326.167 99.5,332.833 99.5,339.5C 166.5,339.5 233.5,339.5 300.5,339.5C 300.5,332.833 300.5,326.167 300.5,319.5C 313.5,319.5 326.5,319.5 339.5,319.5C 339.5,313.167 339.5,306.833 339.5,300.5C 346.167,300.5 352.833,300.5 359.5,300.5C 359.5,286.833 359.5,273.167 359.5,259.5C 366.167,259.5 372.833,259.5 379.5,259.5 Z"/></g>
<g><path style="opacity:1" fill="#9097ad" d="M 158.5,279.5 C 158.833,279.5 159.167,279.5 159.5,279.5C 166.167,279.5 172.833,279.5 179.5,279.5C 179.5,286.167 179.5,292.833 179.5,299.5C 179.5,299.833 179.5,300.167 179.5,300.5C 172.578,300.812 165.744,300.479 159,299.5C 158.5,292.842 158.334,286.175 158.5,279.5 Z"/></g>
<g><path style="opacity:1" fill="#9097ad" d="M 240.5,279.5 C 246.833,279.5 253.167,279.5 259.5,279.5C 259.833,279.5 260.167,279.5 260.5,279.5C 260.666,286.175 260.5,292.842 260,299.5C 253.59,300.478 247.09,300.811 240.5,300.5C 240.5,293.5 240.5,286.5 240.5,279.5 Z"/></g>
<g><path style="opacity:1" fill="#52789f" d="M 240.5,279.5 C 240.5,286.5 240.5,293.5 240.5,300.5C 220.167,300.5 199.833,300.5 179.5,300.5C 179.5,300.167 179.5,299.833 179.5,299.5C 199.5,299.5 219.5,299.5 239.5,299.5C 239.176,292.646 239.509,285.979 240.5,279.5 Z"/></g>
<g><path style="opacity:1" fill="#8c9ab2" d="M 179.5,300.5 C 199.833,300.5 220.167,300.5 240.5,300.5C 240.5,306.833 240.5,313.167 240.5,319.5C 220.167,319.5 199.833,319.5 179.5,319.5C 179.5,313.167 179.5,306.833 179.5,300.5 Z"/></g>
<g><path style="opacity:1" fill="#143464" d="M 79.5,319.5 C 79.5,326.167 79.5,332.833 79.5,339.5C 72.8333,339.5 66.1667,339.5 59.5,339.5C 59.5,332.833 59.5,326.167 59.5,319.5C 66.1667,319.5 72.8333,319.5 79.5,319.5 Z"/></g>
<g><path style="opacity:1" fill="#143464" d="M 59.5,339.5 C 59.5,346.167 59.5,352.833 59.5,359.5C 52.8333,359.5 46.1667,359.5 39.5,359.5C 39.5,352.833 39.5,346.167 39.5,339.5C 46.1667,339.5 52.8333,339.5 59.5,339.5 Z"/></g>
<g><path style="opacity:1" fill="#921e1f" d="M 379.5,199.5 C 379.833,199.5 380.167,199.5 380.5,199.5C 380.5,252.833 380.5,306.167 380.5,359.5C 373.5,359.5 366.5,359.5 359.5,359.5C 359.5,352.833 359.5,346.167 359.5,339.5C 366.167,339.5 372.833,339.5 379.5,339.5C 379.5,312.833 379.5,286.167 379.5,259.5C 379.5,239.5 379.5,219.5 379.5,199.5 Z"/></g>
<g><path style="opacity:1" fill="#171425" d="M 19.5,359.5 C 26.1667,359.5 32.8333,359.5 39.5,359.5C 39.5,366.167 39.5,372.833 39.5,379.5C 32.8333,379.5 26.1667,379.5 19.5,379.5C 19.5,372.833 19.5,366.167 19.5,359.5 Z"/></g>
<g><path style="opacity:1" fill="#9d1c1e" d="M 39.5,359.5 C 46.1667,359.5 52.8333,359.5 59.5,359.5C 59.5,366.167 59.5,372.833 59.5,379.5C 52.8333,379.5 46.1667,379.5 39.5,379.5C 39.5,372.833 39.5,366.167 39.5,359.5 Z"/></g>
<g><path style="opacity:1" fill="#9d1c1e" d="M 359.5,359.5 C 359.5,366.167 359.5,372.833 359.5,379.5C 352.833,379.5 346.167,379.5 339.5,379.5C 339.5,372.833 339.5,366.167 339.5,359.5C 346.167,359.5 352.833,359.5 359.5,359.5 Z"/></g>
<g><path style="opacity:1" fill="#171324" d="M 359.5,359.5 C 366.5,359.5 373.5,359.5 380.5,359.5C 380.5,366.167 380.5,372.833 380.5,379.5C 373.5,379.5 366.5,379.5 359.5,379.5C 359.5,372.833 359.5,366.167 359.5,359.5 Z"/></g>
<g><path style="opacity:1" fill="#171425" d="M 39.5,379.5 C 46.1667,379.5 52.8333,379.5 59.5,379.5C 152.833,379.5 246.167,379.5 339.5,379.5C 346.167,379.5 352.833,379.5 359.5,379.5C 359.5,386.167 359.5,392.833 359.5,399.5C 252.833,399.5 146.167,399.5 39.5,399.5C 39.5,392.833 39.5,386.167 39.5,379.5 Z"/></g>
</svg>
